<svg xmlns="http://www.w3.org/2000/svg" xmlns:xlink="http://www.w3.org/1999/xlink" width="997" zoomAndPan="magnify" viewBox="0 0 747.75 78.749999" height="105" preserveAspectRatio="xMidYMid meet" version="1.0"><defs><g/><clipPath id="8862030a74"><path d="M 1.058594 0 L 578 0 L 578 78.5 L 1.058594 78.5 Z M 1.058594 0 " clip-rule="nonzero"/></clipPath></defs><g clip-path="url(#8862030a74)"><path stroke-linecap="butt" transform="matrix(0.747627, 0, 0, 0.747627, -36.703183, 3.408372)" fill="none" stroke-linejoin="miter" d="M 114.200016 88.668397 C 109.638707 88.668397 105.119196 88.34968 100.631034 87.712246 C 96.163772 87.090487 92.475015 86.296307 89.554314 85.329706 L 90.212648 49.800604 C 91.194923 50.260392 92.584738 50.75153 94.371642 51.279241 C 96.158547 51.791279 98.117873 52.219718 100.249619 52.564559 C 102.381365 52.893726 104.340691 53.055697 106.127595 53.055697 C 110.542609 53.055697 113.886524 52.700406 116.169792 51.989824 C 118.447834 51.279241 119.963046 50.260392 120.710202 48.928051 C 121.457358 47.580035 121.713377 46.038699 121.473033 44.304043 L 121.143866 41.184797 L 91.226272 42.527588 L 91.226272 8.586845 L 153.417876 8.586845 L 153.417876 41.294519 L 146.69347 41.075074 L 148.250481 57.873025 C 148.851341 61.755102 148.642346 65.527456 147.623497 69.195314 C 146.620322 72.842272 144.72892 76.139163 141.95974 79.096439 C 139.206235 82.048489 135.548827 84.384005 130.992742 86.097762 C 126.452332 87.811518 120.856498 88.668397 114.200016 88.668397 Z M 223.854321 40.066675 L 184.087851 38.943328 L 184.087851 43.541212 L 213.462058 42.417865 L 213.462058 52.480961 L 184.087851 51.362839 L 184.087851 56.201067 L 226.346583 54.179043 L 226.346583 87.001664 L 158.78904 87.001664 L 158.78904 8.586845 L 223.854321 8.586845 Z M 296.668081 40.066675 L 256.896386 38.943328 L 256.896386 43.541212 L 286.270594 42.417865 L 286.270594 52.480961 L 256.896386 51.362839 L 256.896386 56.201067 L 299.155118 54.179043 L 299.155118 87.001664 L 231.597575 87.001664 L 231.597575 8.586845 L 296.668081 8.586845 Z M 329.600424 55.192668 L 368.489116 53.604308 L 368.489116 87.001664 L 304.406111 87.001664 L 304.406111 8.586845 L 332.416628 8.586845 Z M 431.88244 87.001664 L 397.82675 87.001664 L 397.82675 8.586845 L 431.88244 8.586845 C 440.466898 8.586845 447.865311 10.081157 454.062004 13.069782 C 460.263922 16.042732 465.060351 20.426396 468.451291 26.226 C 471.857904 32.004704 473.566436 39.152323 473.566436 47.668858 C 473.566436 56.185393 471.857904 63.359136 468.451291 69.195314 C 465.060351 75.010592 460.263922 79.43083 454.062004 82.461254 C 447.865311 85.486452 440.466898 87.001664 431.88244 87.001664 Z M 435.247255 41.623685 L 423.486077 41.623685 L 423.486077 53.849877 L 435.247255 53.849877 C 439.129331 53.849877 442.212004 53.369189 444.490046 52.402588 C 446.768088 51.415088 447.90711 49.873752 447.90711 47.77858 C 447.90711 45.699082 446.768088 44.157746 444.490046 43.154572 C 442.212004 42.135723 439.129331 41.623685 435.247255 41.623685 Z M 543.772987 40.066675 L 504.006517 38.943328 L 504.006517 43.541212 L 533.380725 42.417865 L 533.380725 52.480961 L 504.006517 51.362839 L 504.006517 56.201067 L 546.260025 54.179043 L 546.260025 87.001664 L 478.702482 87.001664 L 478.702482 8.586845 L 543.772987 8.586845 Z M 587.917897 88.668397 C 585.456984 88.668397 582.578082 88.543 579.275965 88.286981 C 575.994748 88.030963 572.593359 87.639098 569.071798 87.111386 C 565.571137 86.57845 562.216771 85.951465 559.008702 85.219984 C 555.800633 84.472828 553.000104 83.610725 550.61234 82.623225 L 550.61234 46.545511 C 554.713861 49.920776 560.011877 52.538435 566.501163 54.398488 C 573.011349 56.258541 579.777553 57.188567 586.799775 57.188567 C 590.462408 57.188567 593.315186 57.021371 595.358109 56.69743 C 597.416707 56.368263 598.451231 55.70993 598.451231 54.727654 C 598.451231 53.687906 597.583903 52.9303 595.849247 52.454837 C 594.13549 51.963699 591.873122 51.624083 589.067368 51.441212 C 586.277288 51.242667 583.205066 50.997099 579.850701 50.704506 C 576.496336 50.411913 573.110621 49.894651 569.704007 49.147495 C 566.313068 48.400339 563.209496 47.297892 560.403742 45.834929 C 557.613663 44.377191 555.351295 42.365617 553.621864 39.789757 C 551.908107 37.203447 551.051228 33.890881 551.051228 29.862508 C 551.051228 24.41297 552.670938 20.008407 555.915581 16.654041 C 559.181123 13.278777 563.648385 10.807414 569.322592 9.239954 C 574.991574 7.672493 581.407711 6.888763 588.57623 6.888763 C 592.019418 6.888763 595.870146 7.170906 600.117964 7.735192 C 604.386681 8.299477 608.550901 9.088433 612.615848 10.086382 C 616.680795 11.089557 620.06651 12.265152 622.762542 13.618393 L 619.073785 46.002125 C 615.186483 43.61436 610.646073 41.759532 605.452554 40.44809 C 600.25381 39.136648 595.086416 38.478315 589.945146 38.478315 C 586.277288 38.478315 583.304339 38.708209 581.026296 39.162773 C 578.748254 39.617336 577.609232 40.364492 577.609232 41.404241 C 577.609232 42.517138 578.466111 43.321768 580.179867 43.812905 C 581.893624 44.304043 584.171667 44.62276 587.013995 44.769056 C 589.861548 44.915352 592.980794 45.108672 596.371733 45.343791 C 599.778347 45.563236 603.179736 45.976 606.570676 46.57686 C 609.961615 47.156821 613.080861 48.123421 615.928414 49.476662 C 618.770742 50.824678 621.048785 52.710855 622.762542 55.135194 C 624.476298 57.559533 625.333177 60.715353 625.333177 64.59743 C 625.333177 69.905896 623.80229 74.352259 620.740518 77.946968 C 617.678745 81.520777 613.347329 84.201135 607.746271 85.988039 C 602.150437 87.774944 595.540979 88.668397 587.917897 88.668397 Z M 663.641909 70.862047 L 661.504938 87.001664 L 626.226629 87.001664 L 652.88913 8.586845 L 684.703351 8.586845 L 711.365853 87.001664 L 676.301764 87.001664 L 674.170018 70.862047 Z M 669.796803 38.039426 L 667.905401 38.039426 L 665.089197 62.355962 L 672.47716 62.355962 Z M 712.248855 42.63731 L 712.248855 8.586845 L 774.529282 8.586845 L 774.529282 42.63731 L 754.700908 41.075074 L 755.056199 54.50821 L 774.529282 52.945974 L 774.529282 87.001664 L 712.248855 87.001664 L 712.248855 52.945974 L 731.753288 54.50821 L 732.082454 41.075074 Z M 712.248855 42.63731 " stroke="#0097b2" stroke-width="8.40285" stroke-opacity="1" stroke-miterlimit="4"/></g><g fill="#5ce1e6" fill-opacity="1"><g transform="translate(28.57396, 68.451881)"><g><path d="M 20.09375 1.25 C 16.6875 1.25 13.304688 1.007812 9.953125 0.53125 C 6.609375 0.0625 3.847656 -0.53125 1.671875 -1.25 L 2.171875 -27.8125 C 2.898438 -27.46875 3.929688 -27.097656 5.265625 -26.703125 C 6.609375 -26.316406 8.078125 -26 9.671875 -25.75 C 11.265625 -25.5 12.726562 -25.375 14.0625 -25.375 C 17.363281 -25.375 19.863281 -25.640625 21.5625 -26.171875 C 23.269531 -26.703125 24.398438 -27.46875 24.953125 -28.46875 C 25.515625 -29.476562 25.710938 -30.625 25.546875 -31.90625 L 25.296875 -34.25 L 2.9375 -33.25 L 2.9375 -58.625 L 49.40625 -58.625 L 49.40625 -34.171875 L 44.390625 -34.34375 L 45.5625 -21.78125 C 46.007812 -18.875 45.851562 -16.050781 45.09375 -13.3125 C 44.34375 -10.582031 42.929688 -8.113281 40.859375 -5.90625 C 38.796875 -3.695312 36.0625 -1.953125 32.65625 -0.671875 C 29.25 0.609375 25.0625 1.25 20.09375 1.25 Z M 20.09375 1.25 "/></g></g></g><g fill="#5ce1e6" fill-opacity="1"><g transform="translate(79.658976, 68.451881)"><g><path d="M 51 -35.09375 L 21.265625 -35.921875 L 21.265625 -32.5 L 43.21875 -33.328125 L 43.21875 -25.796875 L 21.265625 -26.625 L 21.265625 -23.03125 L 52.84375 -24.53125 L 52.84375 0 L 2.34375 0 L 2.34375 -58.625 L 51 -58.625 Z M 51 -35.09375 "/></g></g></g><g fill="#5ce1e6" fill-opacity="1"><g transform="translate(134.093833, 68.451881)"><g><path d="M 51 -35.09375 L 21.265625 -35.921875 L 21.265625 -32.5 L 43.21875 -33.328125 L 43.21875 -25.796875 L 21.265625 -26.625 L 21.265625 -23.03125 L 52.84375 -24.53125 L 52.84375 0 L 2.34375 0 L 2.34375 -58.625 L 51 -58.625 Z M 51 -35.09375 "/></g></g></g><g fill="#5ce1e6" fill-opacity="1"><g transform="translate(188.528691, 68.451881)"><g><path d="M 21.1875 -23.78125 L 50.25 -24.953125 L 50.25 0 L 2.34375 0 L 2.34375 -58.625 L 23.28125 -58.625 Z M 21.1875 -23.78125 "/></g></g></g><g fill="#5ce1e6" fill-opacity="1"><g transform="translate(240.283691, 68.451881)"><g/></g></g><g fill="#5ce1e6" fill-opacity="1"><g transform="translate(258.372817, 68.451881)"><g><path d="M 27.8125 0 L 2.34375 0 L 2.34375 -58.625 L 27.8125 -58.625 C 34.226562 -58.625 39.753906 -57.503906 44.390625 -55.265625 C 49.023438 -53.035156 52.609375 -49.753906 55.140625 -45.421875 C 57.679688 -41.097656 58.953125 -35.753906 58.953125 -29.390625 C 58.953125 -23.023438 57.679688 -17.664062 55.140625 -13.3125 C 52.609375 -8.957031 49.023438 -5.648438 44.390625 -3.390625 C 39.753906 -1.128906 34.226562 0 27.8125 0 Z M 30.3125 -33.921875 L 21.53125 -33.921875 L 21.53125 -24.796875 L 30.3125 -24.796875 C 33.21875 -24.796875 35.519531 -25.15625 37.21875 -25.875 C 38.925781 -26.601562 39.78125 -27.75 39.78125 -29.3125 C 39.78125 -30.875 38.925781 -32.03125 37.21875 -32.78125 C 35.519531 -33.539062 33.21875 -33.921875 30.3125 -33.921875 Z M 30.3125 -33.921875 "/></g></g></g><g fill="#5ce1e6" fill-opacity="1"><g transform="translate(318.837365, 68.451881)"><g><path d="M 51 -35.09375 L 21.265625 -35.921875 L 21.265625 -32.5 L 43.21875 -33.328125 L 43.21875 -25.796875 L 21.265625 -26.625 L 21.265625 -23.03125 L 52.84375 -24.53125 L 52.84375 0 L 2.34375 0 L 2.34375 -58.625 L 51 -58.625 Z M 51 -35.09375 "/></g></g></g><g fill="#5ce1e6" fill-opacity="1"><g transform="translate(373.272235, 68.451881)"><g><path d="M 29.5625 1.25 C 27.71875 1.25 25.566406 1.148438 23.109375 0.953125 C 20.660156 0.765625 18.125 0.472656 15.5 0.078125 C 12.875 -0.304688 10.359375 -0.773438 7.953125 -1.328125 C 5.554688 -1.890625 3.460938 -2.535156 1.671875 -3.265625 L 1.671875 -30.234375 C 4.742188 -27.722656 8.707031 -25.769531 13.5625 -24.375 C 18.425781 -22.976562 23.476562 -22.28125 28.71875 -22.28125 C 31.457031 -22.28125 33.59375 -22.40625 35.125 -22.65625 C 36.664062 -22.90625 37.4375 -23.394531 37.4375 -24.125 C 37.4375 -24.90625 36.789062 -25.472656 35.5 -25.828125 C 34.21875 -26.191406 32.53125 -26.441406 30.4375 -26.578125 C 28.34375 -26.722656 26.039062 -26.90625 23.53125 -27.125 C 21.019531 -27.351562 18.492188 -27.742188 15.953125 -28.296875 C 13.410156 -28.859375 11.09375 -29.679688 9 -30.765625 C 6.90625 -31.859375 5.21875 -33.367188 3.9375 -35.296875 C 2.65625 -37.222656 2.015625 -39.695312 2.015625 -42.71875 C 2.015625 -46.789062 3.226562 -50.082031 5.65625 -52.59375 C 8.082031 -55.101562 11.414062 -56.941406 15.65625 -58.109375 C 19.90625 -59.285156 24.707031 -59.875 30.0625 -59.875 C 32.632812 -59.875 35.507812 -59.664062 38.6875 -59.25 C 41.875 -58.832031 44.988281 -58.242188 48.03125 -57.484375 C 51.070312 -56.734375 53.597656 -55.859375 55.609375 -54.859375 L 52.84375 -30.65625 C 49.9375 -32.4375 46.539062 -33.816406 42.65625 -34.796875 C 38.78125 -35.773438 34.921875 -36.265625 31.078125 -36.265625 C 28.335938 -36.265625 26.113281 -36.097656 24.40625 -35.765625 C 22.707031 -35.429688 21.859375 -34.875 21.859375 -34.09375 C 21.859375 -33.25 22.5 -32.644531 23.78125 -32.28125 C 25.070312 -31.914062 26.773438 -31.675781 28.890625 -31.5625 C 31.015625 -31.457031 33.347656 -31.320312 35.890625 -31.15625 C 38.429688 -30.988281 40.96875 -30.679688 43.5 -30.234375 C 46.039062 -29.785156 48.375 -29.054688 50.5 -28.046875 C 52.625 -27.046875 54.328125 -25.640625 55.609375 -23.828125 C 56.890625 -22.015625 57.53125 -19.65625 57.53125 -16.75 C 57.53125 -12.78125 56.382812 -9.457031 54.09375 -6.78125 C 51.8125 -4.101562 48.578125 -2.09375 44.390625 -0.75 C 40.203125 0.582031 35.257812 1.25 29.5625 1.25 Z M 29.5625 1.25 "/></g></g></g><g fill="#5ce1e6" fill-opacity="1"><g transform="translate(432.480616, 68.451881)"><g><path d="M 26.96875 -12.0625 L 25.375 0 L -1 0 L 18.921875 -58.625 L 42.71875 -58.625 L 62.640625 0 L 36.4375 0 L 34.84375 -12.0625 Z M 31.578125 -36.59375 L 30.15625 -36.59375 L 28.0625 -18.421875 L 33.578125 -18.421875 Z M 31.578125 -36.59375 "/></g></g></g><g fill="#5ce1e6" fill-opacity="1"><g transform="translate(494.117596, 68.451881)"><g><path d="M 1.671875 -33.171875 L 1.671875 -58.625 L 48.234375 -58.625 L 48.234375 -33.171875 L 33.421875 -34.34375 L 33.671875 -24.28125 L 48.234375 -25.453125 L 48.234375 0 L 1.671875 0 L 1.671875 -25.453125 L 16.25 -24.28125 L 16.5 -34.34375 Z M 1.671875 -33.171875 "/></g></g></g></svg>