<svg xmlns="http://www.w3.org/2000/svg" xmlns:xlink="http://www.w3.org/1999/xlink" width="1000" zoomAndPan="magnify" viewBox="0 0 750 149.999998" height="200" preserveAspectRatio="xMidYMid meet" version="1.0"><defs><g/></defs><path stroke-linecap="butt" transform="matrix(1.011326, 0, 0, 1.011326, 0.00000625, 31.512982)" fill="none" stroke-linejoin="miter" d="M 52.947189 88.670238 C 48.389435 88.670238 43.866443 88.34965 39.382077 87.712337 C 34.917023 87.090474 31.22447 86.298661 28.304418 85.333035 L 28.961043 49.801868 C 29.945982 50.257643 31.33262 50.752044 33.120959 51.281207 C 34.905436 51.791057 36.867588 52.219795 38.999689 52.563558 C 41.131791 52.89187 43.093943 53.057958 44.878419 53.057958 C 49.293261 53.057958 52.638188 52.702608 54.917065 51.991907 C 57.195942 51.281207 58.710044 50.257643 59.459369 48.928942 C 60.204832 47.577066 60.459757 46.035927 60.224145 44.305526 L 59.895832 41.188486 L 29.973019 42.528774 L 29.973019 8.585095 L 92.170909 8.585095 L 92.170909 41.296636 L 85.442429 41.076473 L 86.999017 57.870637 C 87.601568 61.756315 87.392993 65.529981 86.373292 69.195497 C 85.369041 72.8417 83.480277 76.140278 80.710862 79.095093 C 77.956897 82.049908 74.299107 84.38286 69.741353 86.097811 C 65.202911 87.812762 59.602282 88.670238 52.947189 88.670238 Z M 162.607519 40.064497 L 122.835323 38.944371 L 122.835323 43.54075 L 152.213523 42.416762 L 152.213523 52.482445 L 122.835323 51.362319 L 122.835323 56.202036 L 165.094971 54.178084 L 165.094971 87.001637 L 97.535926 87.001637 L 97.535926 8.585095 L 162.607519 8.585095 Z M 235.415706 40.064497 L 195.647372 38.944371 L 195.647372 43.54075 L 225.021709 42.416762 L 225.021709 52.482445 L 195.647372 51.362319 L 195.647372 56.202036 L 237.903158 54.178084 L 237.903158 87.001637 L 170.347975 87.001637 L 170.347975 8.585095 L 235.415706 8.585095 Z M 268.347408 55.19006 L 307.242816 53.602571 L 307.242816 87.001637 L 243.156162 87.001637 L 243.156162 8.585095 L 271.167036 8.585095 Z M 370.630357 87.001637 L 336.578529 87.001637 L 336.578529 8.585095 L 370.630357 8.585095 C 379.220565 8.585095 386.613396 10.079884 392.812714 13.069462 C 399.012031 16.043589 403.809261 20.42753 407.200538 26.225148 C 410.611129 32.007315 412.314493 39.152946 412.314493 47.669766 C 412.314493 56.182723 410.611129 63.359254 407.200538 69.195497 C 403.809261 75.012427 399.012031 79.43113 392.812714 82.459333 C 386.613396 85.487536 379.220565 87.001637 370.630357 87.001637 Z M 373.994598 41.624948 L 362.233275 41.624948 L 362.233275 53.849771 L 373.994598 53.849771 C 377.880276 53.849771 380.962554 53.366958 383.241431 52.401333 C 385.520308 51.416394 386.659746 49.875255 386.659746 47.777916 C 386.659746 45.699889 385.520308 44.158751 383.241431 43.1545 C 380.962554 42.134799 377.880276 41.624948 373.994598 41.624948 Z M 482.523215 40.064497 L 442.754881 38.944371 L 442.754881 43.54075 L 472.129218 42.416762 L 472.129218 52.482445 L 442.754881 51.362319 L 442.754881 56.202036 L 485.010667 54.178084 L 485.010667 87.001637 L 417.455485 87.001637 L 417.455485 8.585095 L 482.523215 8.585095 Z M 526.667765 88.670238 C 524.20735 88.670238 521.325922 88.538913 518.027345 88.283988 C 514.744217 88.029063 511.341352 87.63895 507.822611 87.109787 C 504.323183 86.580624 500.966668 85.951036 497.756928 85.221023 C 494.55105 84.47556 491.750735 83.610359 489.363708 82.625421 L 489.363708 46.54964 C 493.465686 49.921605 498.761178 52.53652 505.254046 54.398247 C 511.762364 56.256111 518.525608 57.186974 525.547639 57.186974 C 529.213154 57.186974 532.067544 57.024749 534.106946 56.696436 C 536.169523 56.368123 537.200811 55.711498 537.200811 54.726559 C 537.200811 53.687546 536.331748 52.930495 534.601346 52.455408 C 532.886395 51.96487 530.62683 51.624969 527.81879 51.443432 C 525.026201 51.242582 521.955511 50.995381 518.598995 50.705694 C 515.246342 50.412143 511.862789 49.894568 508.452199 49.145242 C 505.060921 48.399779 501.963194 47.295103 499.155154 45.835077 C 496.362564 44.378913 494.102999 42.362687 492.372598 39.790259 C 490.657647 37.202382 489.800171 33.892217 489.800171 29.863626 C 489.800171 24.409771 491.422422 20.006518 494.666925 16.653865 C 497.93074 13.278037 502.399656 10.809897 508.069811 9.241721 C 513.739966 7.673545 520.159447 6.889456 527.32439 6.889456 C 530.769743 6.889456 534.620659 7.171419 538.869412 7.735345 C 543.133616 8.303133 547.301257 9.087221 551.368473 10.087609 C 555.431826 11.09186 558.815379 12.266061 561.515269 13.617937 L 557.822716 46.001165 C 553.937038 43.610275 549.398596 41.760136 544.199667 40.446885 C 539.0046 39.137496 533.836571 38.480871 528.691716 38.480871 C 525.026201 38.480871 522.055936 38.708758 519.777059 39.164534 C 517.498182 39.620309 516.358743 40.365772 516.358743 41.404786 C 516.358743 42.517187 517.216219 43.320587 518.927308 43.811125 C 520.642259 44.305526 522.921136 44.622251 525.767801 44.769026 C 528.610604 44.915801 531.727644 45.108926 535.118922 45.344539 C 538.529512 45.564702 541.932377 45.974127 545.323655 46.576678 C 548.714933 47.159916 551.831973 48.125541 554.674776 49.473555 C 557.521441 50.825431 559.800318 52.710333 561.515269 55.135985 C 563.226358 57.561637 564.083834 60.717302 564.083834 64.599118 C 564.083834 69.906197 562.554282 74.355801 559.491317 77.947929 C 556.428352 81.520745 552.094624 84.201322 546.497856 85.989661 C 540.901089 87.774137 534.292346 88.670238 526.667765 88.670238 Z M 602.392141 70.864098 L 600.256177 87.001637 L 564.976072 87.001637 L 591.642794 8.585095 L 623.450509 8.585095 L 650.117231 87.001637 L 615.053427 87.001637 L 612.921325 70.864098 Z M 608.545109 38.040545 L 606.656345 38.040545 L 603.84058 62.355003 L 611.225686 62.355003 Z M 651.001745 42.636924 L 651.001745 8.585095 L 713.280747 8.585095 L 713.280747 42.636924 L 693.450656 41.076473 L 693.806006 54.506397 L 713.280747 52.949808 L 713.280747 87.001637 L 651.001745 87.001637 L 651.001745 52.949808 L 670.503524 54.506397 L 670.831837 41.076473 Z M 651.001745 42.636924 " stroke="#806900" stroke-width="8.40285" stroke-opacity="1" stroke-miterlimit="4"/><g fill="#ffd200" fill-opacity="1"><g transform="translate(26.35769, 119.498345)"><g><path d="M 27.1875 1.703125 C 22.582031 1.703125 18.015625 1.378906 13.484375 0.734375 C 8.953125 0.0859375 5.210938 -0.722656 2.265625 -1.703125 L 2.953125 -37.609375 C 3.929688 -37.160156 5.328125 -36.671875 7.140625 -36.140625 C 8.953125 -35.609375 10.929688 -35.171875 13.078125 -34.828125 C 15.234375 -34.492188 17.21875 -34.328125 19.03125 -34.328125 C 23.488281 -34.328125 26.867188 -34.6875 29.171875 -35.40625 C 31.472656 -36.125 33 -37.160156 33.75 -38.515625 C 34.507812 -39.878906 34.78125 -41.429688 34.5625 -43.171875 L 34.21875 -46.34375 L 3.96875 -44.984375 L 3.96875 -79.3125 L 66.84375 -79.3125 L 66.84375 -46.21875 L 60.046875 -46.453125 L 61.640625 -29.453125 C 62.242188 -25.523438 62.035156 -21.710938 61.015625 -18.015625 C 59.992188 -14.316406 58.082031 -10.972656 55.28125 -7.984375 C 52.488281 -5.003906 48.789062 -2.644531 44.1875 -0.90625 C 39.582031 0.832031 33.914062 1.703125 27.1875 1.703125 Z M 27.1875 1.703125 "/></g></g></g><g fill="#ffd200" fill-opacity="1"><g transform="translate(95.461182, 119.498345)"><g><path d="M 69 -47.46875 L 28.78125 -48.609375 L 28.78125 -43.953125 L 58.46875 -45.09375 L 58.46875 -34.890625 L 28.78125 -36.03125 L 28.78125 -31.15625 L 71.484375 -33.203125 L 71.484375 0 L 3.171875 0 L 3.171875 -79.3125 L 69 -79.3125 Z M 69 -47.46875 "/></g></g></g><g fill="#ffd200" fill-opacity="1"><g transform="translate(169.096057, 119.498345)"><g><path d="M 69 -47.46875 L 28.78125 -48.609375 L 28.78125 -43.953125 L 58.46875 -45.09375 L 58.46875 -34.890625 L 28.78125 -36.03125 L 28.78125 -31.15625 L 71.484375 -33.203125 L 71.484375 0 L 3.171875 0 L 3.171875 -79.3125 L 69 -79.3125 Z M 69 -47.46875 "/></g></g></g><g fill="#ffd200" fill-opacity="1"><g transform="translate(242.730932, 119.498345)"><g><path d="M 28.671875 -32.171875 L 67.984375 -33.765625 L 67.984375 0 L 3.171875 0 L 3.171875 -79.3125 L 31.5 -79.3125 Z M 28.671875 -32.171875 "/></g></g></g><g fill="#ffd200" fill-opacity="1"><g transform="translate(312.740722, 119.498345)"><g/></g></g><g fill="#ffd200" fill-opacity="1"><g transform="translate(337.210163, 119.498345)"><g><path d="M 37.609375 0 L 3.171875 0 L 3.171875 -79.3125 L 37.609375 -79.3125 C 46.296875 -79.3125 53.773438 -77.800781 60.046875 -74.78125 C 66.316406 -71.757812 71.171875 -67.320312 74.609375 -61.46875 C 78.046875 -55.613281 79.765625 -48.378906 79.765625 -39.765625 C 79.765625 -31.148438 78.046875 -23.894531 74.609375 -18 C 71.171875 -12.113281 66.316406 -7.640625 60.046875 -4.578125 C 53.773438 -1.523438 46.296875 0 37.609375 0 Z M 41.015625 -45.890625 L 29.125 -45.890625 L 29.125 -33.53125 L 41.015625 -33.53125 C 44.941406 -33.53125 48.054688 -34.019531 50.359375 -35 C 52.660156 -35.988281 53.8125 -37.539062 53.8125 -39.65625 C 53.8125 -41.769531 52.660156 -43.335938 50.359375 -44.359375 C 48.054688 -45.378906 44.941406 -45.890625 41.015625 -45.890625 Z M 41.015625 -45.890625 "/></g></g></g><g fill="#ffd200" fill-opacity="1"><g transform="translate(419.001493, 119.498345)"><g><path d="M 69 -47.46875 L 28.78125 -48.609375 L 28.78125 -43.953125 L 58.46875 -45.09375 L 58.46875 -34.890625 L 28.78125 -36.03125 L 28.78125 -31.15625 L 71.484375 -33.203125 L 71.484375 0 L 3.171875 0 L 3.171875 -79.3125 L 69 -79.3125 Z M 69 -47.46875 "/></g></g></g><g fill="#ffd200" fill-opacity="1"><g transform="translate(492.636384, 119.498345)"><g><path d="M 40 1.703125 C 37.5 1.703125 34.585938 1.566406 31.265625 1.296875 C 27.941406 1.035156 24.503906 0.640625 20.953125 0.109375 C 17.410156 -0.421875 14.015625 -1.0625 10.765625 -1.8125 C 7.515625 -2.570312 4.679688 -3.441406 2.265625 -4.421875 L 2.265625 -40.90625 C 6.421875 -37.5 11.785156 -34.851562 18.359375 -32.96875 C 24.929688 -31.082031 31.765625 -30.140625 38.859375 -30.140625 C 42.554688 -30.140625 45.441406 -30.304688 47.515625 -30.640625 C 49.597656 -30.984375 50.640625 -31.644531 50.640625 -32.625 C 50.640625 -33.6875 49.769531 -34.460938 48.03125 -34.953125 C 46.300781 -35.441406 44.019531 -35.78125 41.1875 -35.96875 C 38.351562 -36.15625 35.234375 -36.398438 31.828125 -36.703125 C 28.429688 -37.003906 25.015625 -37.53125 21.578125 -38.28125 C 18.140625 -39.039062 15.003906 -40.15625 12.171875 -41.625 C 9.347656 -43.101562 7.066406 -45.144531 5.328125 -47.75 C 3.585938 -50.351562 2.71875 -53.695312 2.71875 -57.78125 C 2.71875 -63.289062 4.359375 -67.742188 7.640625 -71.140625 C 10.929688 -74.546875 15.445312 -77.039062 21.1875 -78.625 C 26.925781 -80.207031 33.421875 -81 40.671875 -81 C 44.148438 -81 48.039062 -80.71875 52.34375 -80.15625 C 56.644531 -79.59375 60.851562 -78.800781 64.96875 -77.78125 C 69.09375 -76.757812 72.515625 -75.566406 75.234375 -74.203125 L 71.484375 -41.46875 C 67.554688 -43.882812 62.96875 -45.753906 57.71875 -47.078125 C 52.46875 -48.398438 47.238281 -49.0625 42.03125 -49.0625 C 38.332031 -49.0625 35.332031 -48.832031 33.03125 -48.375 C 30.726562 -47.925781 29.578125 -47.171875 29.578125 -46.109375 C 29.578125 -44.972656 30.441406 -44.160156 32.171875 -43.671875 C 33.910156 -43.179688 36.210938 -42.859375 39.078125 -42.703125 C 41.953125 -42.554688 45.109375 -42.367188 48.546875 -42.140625 C 51.984375 -41.921875 55.421875 -41.507812 58.859375 -40.90625 C 62.296875 -40.300781 65.445312 -39.316406 68.3125 -37.953125 C 71.1875 -36.597656 73.488281 -34.691406 75.21875 -32.234375 C 76.957031 -29.773438 77.828125 -26.582031 77.828125 -22.65625 C 77.828125 -17.289062 76.28125 -12.796875 73.1875 -9.171875 C 70.09375 -5.546875 65.710938 -2.828125 60.046875 -1.015625 C 54.378906 0.796875 47.695312 1.703125 40 1.703125 Z M 40 1.703125 "/></g></g></g><g fill="#ffd200" fill-opacity="1"><g transform="translate(572.728478, 119.498345)"><g><path d="M 36.484375 -16.3125 L 34.328125 0 L -1.359375 0 L 25.609375 -79.3125 L 57.78125 -79.3125 L 84.75 0 L 49.28125 0 L 47.125 -16.3125 Z M 42.71875 -49.515625 L 40.78125 -49.515625 L 37.953125 -24.921875 L 45.4375 -24.921875 Z M 42.71875 -49.515625 "/></g></g></g><g fill="#ffd200" fill-opacity="1"><g transform="translate(656.105776, 119.498345)"><g><path d="M 2.265625 -44.859375 L 2.265625 -79.3125 L 65.265625 -79.3125 L 65.265625 -44.859375 L 45.203125 -46.453125 L 45.546875 -32.859375 L 65.265625 -34.4375 L 65.265625 0 L 2.265625 0 L 2.265625 -34.4375 L 21.984375 -32.859375 L 22.3125 -46.453125 Z M 2.265625 -44.859375 "/></g></g></g></svg>