<svg xmlns="http://www.w3.org/2000/svg" xmlns:xlink="http://www.w3.org/1999/xlink" width="997" zoomAndPan="magnify" viewBox="0 0 747.75 78.749999" height="105" preserveAspectRatio="xMidYMid meet" version="1.0"><defs><g/><clipPath id="5a6b30f843"><path d="M 33 0 L 717 0 L 717 78.5 L 33 78.5 Z M 33 0 " clip-rule="nonzero"/></clipPath></defs><g clip-path="url(#5a6b30f843)"><path stroke-linecap="butt" transform="matrix(0.875026, 0, 0, 0.875026, 69.812007, -2.612655)" fill="none" stroke-linejoin="miter" d="M 30.745174 88.666258 C 26.187275 88.666258 21.66509 88.349303 17.178618 87.71093 C 12.710002 87.090413 9.018149 86.295794 6.103058 85.331537 L 6.759289 49.801357 C 7.741402 50.2567 9.129753 50.752221 10.915414 51.278991 C 12.701074 51.787904 14.660837 52.216463 16.794701 52.564666 C 18.928565 52.895014 20.888328 53.055723 22.678452 53.055723 C 27.089034 53.055723 30.437147 52.703055 32.713864 51.988791 C 34.995046 51.278991 36.508393 50.2567 37.253906 48.926383 C 38.003884 47.578209 38.25834 46.038077 38.02174 44.305986 L 37.691393 41.185545 L 7.772651 42.529254 L 7.772651 8.583848 L 69.967207 8.583848 L 69.967207 41.297148 L 63.239731 41.078405 L 64.79772 57.872542 C 65.40038 61.756354 65.190565 65.528562 64.168275 69.19363 C 63.163841 72.840842 61.279969 76.139849 58.507731 79.095118 C 55.753349 82.050386 52.097209 84.385137 47.539311 86.099371 C 42.999269 87.813605 37.401223 88.666258 30.745174 88.666258 Z M 140.402587 40.065043 L 100.635927 38.944541 L 100.635927 43.538152 L 130.010042 42.41765 L 130.010042 52.484312 L 100.635927 51.359345 L 100.635927 56.20295 L 142.893583 54.180689 L 142.893583 87.00113 L 75.333117 87.00113 L 75.333117 8.583848 L 140.402587 8.583848 Z M 213.212895 40.065043 L 173.446235 38.944541 L 173.446235 43.538152 L 202.82035 42.41765 L 202.82035 52.484312 L 173.446235 51.359345 L 173.446235 56.20295 L 215.703891 54.180689 L 215.703891 87.00113 L 148.143425 87.00113 L 148.143425 8.583848 L 213.212895 8.583848 Z M 246.144939 55.189587 L 285.036625 53.604814 L 285.036625 87.00113 L 220.953733 87.00113 L 220.953733 8.583848 L 248.961818 8.583848 Z M 348.427574 87.00113 L 314.375027 87.00113 L 314.375027 8.583848 L 348.427574 8.583848 C 357.016601 8.583848 364.409235 10.079338 370.609942 13.07032 C 376.810648 16.043444 381.605146 20.427241 384.997901 26.226174 C 388.404049 32.00725 390.109354 39.154356 390.109354 47.667492 C 390.109354 56.185093 388.404049 63.358984 384.997901 69.19363 C 381.605146 75.010419 376.810648 79.434393 370.609942 82.461088 C 364.409235 85.487782 357.016601 87.00113 348.427574 87.00113 Z M 351.793544 41.623031 L 340.030505 41.623031 L 340.030505 53.850342 L 351.793544 53.850342 C 355.677355 53.850342 358.75762 53.368214 361.038801 52.399493 C 363.315518 51.417379 364.453877 49.877247 364.453877 47.779096 C 364.453877 45.698802 363.315518 44.158669 361.038801 43.154235 C 358.75762 42.136409 355.677355 41.623031 351.793544 41.623031 Z M 460.321526 40.065043 L 420.550402 38.944541 L 420.550402 43.538152 L 449.924518 42.41765 L 449.924518 52.484312 L 420.550402 51.359345 L 420.550402 56.20295 L 462.808059 54.180689 L 462.808059 87.00113 L 395.252057 87.00113 L 395.252057 8.583848 L 460.321526 8.583848 Z M 504.467519 88.666258 C 502.003307 88.666258 499.12393 88.541262 495.824922 88.286805 C 492.539306 88.032349 489.142087 87.639503 485.619872 87.108269 C 482.119977 86.581499 478.762935 85.952054 475.557675 85.224397 C 472.34795 84.47442 469.548927 83.608375 467.160606 82.621797 L 467.160606 46.54699 C 471.263161 49.921889 476.557645 52.537881 483.048521 54.399433 C 489.557253 56.256519 496.324907 57.189527 503.342553 57.189527 C 507.007621 57.189527 509.864678 57.024353 511.904795 56.694006 C 513.967233 56.368123 514.993987 55.711893 514.993987 54.725316 C 514.993987 53.685168 514.127942 52.930727 512.395851 52.457527 C 510.681617 51.962006 508.422757 51.627195 505.614806 51.444164 C 502.824711 51.243278 499.753375 50.997749 496.396333 50.703115 C 493.043755 50.412945 489.659929 49.895104 486.249317 49.145126 C 482.856562 48.399613 479.758441 47.296968 476.95049 45.83719 C 474.160395 44.377413 471.901535 42.364081 470.169444 39.792729 C 468.45521 37.203522 467.598093 33.891121 467.598093 29.864457 C 467.598093 24.413728 469.21858 20.007611 472.464018 16.655033 C 475.727313 13.280135 480.195928 10.806995 485.8654 9.240078 C 491.539336 7.673161 497.954322 6.88747 505.123749 6.88747 C 508.570074 6.88747 512.413708 7.173176 516.66358 7.735659 C 520.931309 8.302606 525.096362 9.083833 529.163204 10.088267 C 533.230046 11.092701 536.613872 12.266772 539.31022 13.614946 L 535.618367 46.002364 C 531.734555 43.614043 527.194513 41.76142 521.998241 40.44896 C 516.801969 39.136499 511.632482 38.480269 506.489779 38.480269 C 502.824711 38.480269 499.851586 38.707941 497.574869 39.163284 C 495.293688 39.618628 494.155329 40.368605 494.155329 41.404288 C 494.155329 42.515862 495.012446 43.319409 496.72668 43.810466 C 498.440914 44.305986 500.717632 44.622941 503.561296 44.770258 C 506.409425 44.917575 509.525402 45.105069 512.918157 45.346134 C 516.328769 45.564877 519.725988 45.975579 523.118743 46.573775 C 526.511498 47.158579 529.627475 48.122836 532.47114 49.475474 C 535.319268 50.823647 537.595986 52.711983 539.31022 55.136017 C 541.024454 57.560052 541.881571 60.716207 541.881571 64.600018 C 541.881571 69.90343 540.350367 74.354189 537.287959 77.947831 C 534.225551 81.519152 529.895325 84.202107 524.297279 85.987767 C 518.699233 87.773428 512.087825 88.666258 504.467519 88.666258 Z M 580.188453 70.863223 L 578.054589 87.00113 L 542.769937 87.00113 L 569.438777 8.583848 L 601.245855 8.583848 L 627.914695 87.00113 L 592.848786 87.00113 L 590.719386 70.863223 Z M 586.340054 38.042782 L 584.456182 38.042782 L 581.634838 62.35455 L 589.023009 62.35455 Z M 628.798597 42.636394 L 628.798597 8.583848 L 691.077972 8.583848 L 691.077972 42.636394 L 671.248212 41.078405 L 671.60088 54.506572 L 691.077972 52.948583 L 691.077972 87.00113 L 628.798597 87.00113 L 628.798597 52.948583 L 648.29801 54.506572 L 648.628357 41.078405 Z M 628.798597 42.636394 " stroke="#0097b2" stroke-width="8.40285" stroke-opacity="1" stroke-miterlimit="4"/></g><g fill="#5ce1e6" fill-opacity="1"><g transform="translate(73.189062, 73.514637)"><g><path d="M 23.53125 1.46875 C 19.539062 1.46875 15.582031 1.1875 11.65625 0.625 C 7.738281 0.0703125 4.503906 -0.625 1.953125 -1.46875 L 2.546875 -32.546875 C 3.398438 -32.148438 4.609375 -31.722656 6.171875 -31.265625 C 7.742188 -30.804688 9.457031 -30.429688 11.3125 -30.140625 C 13.175781 -29.847656 14.894531 -29.703125 16.46875 -29.703125 C 20.320312 -29.703125 23.242188 -30.007812 25.234375 -30.625 C 27.234375 -31.25 28.554688 -32.148438 29.203125 -33.328125 C 29.859375 -34.503906 30.09375 -35.84375 29.90625 -37.34375 L 29.609375 -40.09375 L 3.4375 -38.921875 L 3.4375 -68.625 L 57.84375 -68.625 L 57.84375 -40 L 51.953125 -40.1875 L 53.328125 -25.484375 C 53.847656 -22.085938 53.664062 -18.785156 52.78125 -15.578125 C 51.90625 -12.378906 50.257812 -9.488281 47.84375 -6.90625 C 45.425781 -4.320312 42.222656 -2.28125 38.234375 -0.78125 C 34.242188 0.71875 29.34375 1.46875 23.53125 1.46875 Z M 23.53125 1.46875 "/></g></g></g><g fill="#5ce1e6" fill-opacity="1"><g transform="translate(132.979253, 73.514637)"><g><path d="M 59.703125 -41.078125 L 24.90625 -42.0625 L 24.90625 -38.03125 L 50.578125 -39.015625 L 50.578125 -30.1875 L 24.90625 -31.171875 L 24.90625 -26.953125 L 61.859375 -28.71875 L 61.859375 0 L 2.75 0 L 2.75 -68.625 L 59.703125 -68.625 Z M 59.703125 -41.078125 "/></g></g></g><g fill="#5ce1e6" fill-opacity="1"><g transform="translate(196.690119, 73.514637)"><g><path d="M 59.703125 -41.078125 L 24.90625 -42.0625 L 24.90625 -38.03125 L 50.578125 -39.015625 L 50.578125 -30.1875 L 24.90625 -31.171875 L 24.90625 -26.953125 L 61.859375 -28.71875 L 61.859375 0 L 2.75 0 L 2.75 -68.625 L 59.703125 -68.625 Z M 59.703125 -41.078125 "/></g></g></g><g fill="#5ce1e6" fill-opacity="1"><g transform="translate(260.400984, 73.514637)"><g><path d="M 24.796875 -27.84375 L 58.8125 -29.21875 L 58.8125 0 L 2.75 0 L 2.75 -68.625 L 27.25 -68.625 Z M 24.796875 -27.84375 "/></g></g></g><g fill="#5ce1e6" fill-opacity="1"><g transform="translate(320.97533, 73.514637)"><g/></g></g><g fill="#5ce1e6" fill-opacity="1"><g transform="translate(342.146946, 73.514637)"><g><path d="M 32.546875 0 L 2.75 0 L 2.75 -68.625 L 32.546875 -68.625 C 40.054688 -68.625 46.523438 -67.316406 51.953125 -64.703125 C 57.378906 -62.085938 61.578125 -58.242188 64.546875 -53.171875 C 67.523438 -48.109375 69.015625 -41.851562 69.015625 -34.40625 C 69.015625 -26.957031 67.523438 -20.679688 64.546875 -15.578125 C 61.578125 -10.484375 57.378906 -6.613281 51.953125 -3.96875 C 46.523438 -1.320312 40.054688 0 32.546875 0 Z M 35.484375 -39.703125 L 25.1875 -39.703125 L 25.1875 -29.015625 L 35.484375 -29.015625 C 38.878906 -29.015625 41.570312 -29.4375 43.5625 -30.28125 C 45.5625 -31.132812 46.5625 -32.476562 46.5625 -34.3125 C 46.5625 -36.144531 45.5625 -37.5 43.5625 -38.375 C 41.570312 -39.257812 38.878906 -39.703125 35.484375 -39.703125 Z M 35.484375 -39.703125 "/></g></g></g><g fill="#5ce1e6" fill-opacity="1"><g transform="translate(412.914995, 73.514637)"><g><path d="M 59.703125 -41.078125 L 24.90625 -42.0625 L 24.90625 -38.03125 L 50.578125 -39.015625 L 50.578125 -30.1875 L 24.90625 -31.171875 L 24.90625 -26.953125 L 61.859375 -28.71875 L 61.859375 0 L 2.75 0 L 2.75 -68.625 L 59.703125 -68.625 Z M 59.703125 -41.078125 "/></g></g></g><g fill="#5ce1e6" fill-opacity="1"><g transform="translate(476.625875, 73.514637)"><g><path d="M 34.609375 1.46875 C 32.453125 1.46875 29.9375 1.351562 27.0625 1.125 C 24.1875 0.894531 21.210938 0.550781 18.140625 0.09375 C 15.066406 -0.363281 12.125 -0.914062 9.3125 -1.5625 C 6.5 -2.21875 4.046875 -2.972656 1.953125 -3.828125 L 1.953125 -35.390625 C 5.554688 -32.453125 10.195312 -30.164062 15.875 -28.53125 C 21.5625 -26.894531 27.476562 -26.078125 33.625 -26.078125 C 36.820312 -26.078125 39.316406 -26.222656 41.109375 -26.515625 C 42.910156 -26.804688 43.8125 -27.378906 43.8125 -28.234375 C 43.8125 -29.148438 43.0625 -29.816406 41.5625 -30.234375 C 40.0625 -30.660156 38.082031 -30.957031 35.625 -31.125 C 33.175781 -31.289062 30.484375 -31.503906 27.546875 -31.765625 C 24.609375 -32.023438 21.648438 -32.476562 18.671875 -33.125 C 15.703125 -33.78125 12.988281 -34.742188 10.53125 -36.015625 C 8.082031 -37.296875 6.109375 -39.0625 4.609375 -41.3125 C 3.109375 -43.570312 2.359375 -46.46875 2.359375 -50 C 2.359375 -54.769531 3.773438 -58.625 6.609375 -61.5625 C 9.453125 -64.5 13.359375 -66.65625 18.328125 -68.03125 C 23.296875 -69.40625 28.914062 -70.09375 35.1875 -70.09375 C 38.195312 -70.09375 41.5625 -69.847656 45.28125 -69.359375 C 49.007812 -68.867188 52.65625 -68.179688 56.21875 -67.296875 C 59.78125 -66.410156 62.738281 -65.378906 65.09375 -64.203125 L 61.859375 -35.875 C 58.460938 -37.96875 54.492188 -39.585938 49.953125 -40.734375 C 45.410156 -41.878906 40.882812 -42.453125 36.375 -42.453125 C 33.164062 -42.453125 30.566406 -42.253906 28.578125 -41.859375 C 26.585938 -41.460938 25.59375 -40.8125 25.59375 -39.90625 C 25.59375 -38.914062 26.34375 -38.207031 27.84375 -37.78125 C 29.34375 -37.363281 31.332031 -37.085938 33.8125 -36.953125 C 36.300781 -36.828125 39.03125 -36.664062 42 -36.46875 C 44.976562 -36.269531 47.953125 -35.910156 50.921875 -35.390625 C 53.898438 -34.867188 56.628906 -34.019531 59.109375 -32.84375 C 61.597656 -31.664062 63.59375 -30.015625 65.09375 -27.890625 C 66.59375 -25.765625 67.34375 -23.003906 67.34375 -19.609375 C 67.34375 -14.960938 66.003906 -11.070312 63.328125 -7.9375 C 60.648438 -4.800781 56.859375 -2.445312 51.953125 -0.875 C 47.054688 0.6875 41.273438 1.46875 34.609375 1.46875 Z M 34.609375 1.46875 "/></g></g></g><g fill="#5ce1e6" fill-opacity="1"><g transform="translate(545.923699, 73.514637)"><g><path d="M 31.5625 -14.109375 L 29.703125 0 L -1.171875 0 L 22.15625 -68.625 L 50 -68.625 L 73.328125 0 L 42.640625 0 L 40.78125 -14.109375 Z M 36.953125 -42.84375 L 35.296875 -42.84375 L 32.84375 -21.5625 L 39.3125 -21.5625 Z M 36.953125 -42.84375 "/></g></g></g><g fill="#5ce1e6" fill-opacity="1"><g transform="translate(618.06397, 73.514637)"><g><path d="M 1.953125 -38.828125 L 1.953125 -68.625 L 56.46875 -68.625 L 56.46875 -38.828125 L 39.109375 -40.1875 L 39.40625 -28.421875 L 56.46875 -29.796875 L 56.46875 0 L 1.953125 0 L 1.953125 -29.796875 L 19.015625 -28.421875 L 19.3125 -40.1875 Z M 1.953125 -38.828125 "/></g></g></g></svg>