<svg xmlns="http://www.w3.org/2000/svg" xmlns:xlink="http://www.w3.org/1999/xlink" width="500" zoomAndPan="magnify" viewBox="0 0 375 374.999991" height="500" preserveAspectRatio="xMidYMid meet" version="1.0"><defs><g/></defs><path stroke-linecap="butt" transform="matrix(0.75, 0, 0, 0.75, 37.344165, 56.999996)" fill="none" stroke-linejoin="miter" d="M 111.905705 179.369808 C 102.697371 179.369808 93.556745 178.729183 84.494245 177.437517 C 75.468202 176.182308 68.00466 174.58335 62.108826 172.630225 L 63.436951 100.833345 C 65.426535 101.75522 68.228618 102.750012 71.837994 103.81772 C 75.447369 104.84897 79.410911 105.718762 83.718203 106.416679 C 88.030703 107.078137 91.994245 107.41147 95.60362 107.41147 C 104.520287 107.41147 111.280705 106.69272 115.884872 105.25522 C 120.494247 103.81772 123.551539 101.75522 125.061956 99.06772 C 126.572372 96.338553 127.087997 93.223969 126.608831 89.723969 L 125.947372 83.427094 L 65.483827 86.135427 L 65.483827 17.546881 L 191.160918 17.546881 L 191.160918 83.645844 L 177.567167 83.203135 L 180.718209 117.140638 C 181.931751 124.989597 181.509876 132.614597 179.447376 140.020848 C 177.421334 147.39064 173.603625 154.057307 168.004667 160.026057 C 162.442166 165.994808 155.051541 170.713558 145.843207 174.1771 C 136.666123 177.640642 125.353622 179.369808 111.905705 179.369808 Z M 333.504678 81.161469 L 253.145297 78.890635 L 253.145297 88.177094 L 312.504676 85.911469 L 312.504676 106.250012 L 253.145297 103.984387 L 253.145297 113.765637 L 338.535928 109.677096 L 338.535928 176.000017 L 202.020294 176.000017 L 202.020294 17.546881 L 333.504678 17.546881 Z M 333.504678 81.161469 " stroke="#0097b2" stroke-width="16.979099" stroke-opacity="1" stroke-miterlimit="4"/><path stroke-linecap="butt" transform="matrix(0.75, 0, 0, 0.75, 37.344165, 56.999996)" fill="none" stroke-linejoin="miter" d="M 194.509877 255.16148 L 114.150496 252.890647 L 114.150496 262.177106 L 173.509875 259.91148 L 173.509875 280.250023 L 114.150496 277.984398 L 114.150496 287.765649 L 199.541127 283.677107 L 199.541127 350.000028 L 63.025493 350.000028 L 63.025493 191.546893 L 194.509877 191.546893 Z M 261.072381 285.723982 L 339.666136 282.515649 L 339.666136 350.000028 L 210.171336 350.000028 L 210.171336 191.546893 L 266.76509 191.546893 Z M 261.072381 285.723982 " stroke="#0097b2" stroke-width="16.979099" stroke-opacity="1" stroke-miterlimit="4"/><g fill="#78dafa" fill-opacity="1"><g transform="translate(80.527755, 188.999988)"><g><path d="M 40.75 2.546875 C 33.84375 2.546875 26.992188 2.0625 20.203125 1.09375 C 13.410156 0.132812 7.804688 -1.078125 3.390625 -2.546875 L 4.421875 -56.375 C 5.890625 -55.6875 7.976562 -54.945312 10.6875 -54.15625 C 13.40625 -53.363281 16.378906 -52.710938 19.609375 -52.203125 C 22.835938 -51.691406 25.804688 -51.4375 28.515625 -51.4375 C 35.203125 -51.4375 40.269531 -51.972656 43.71875 -53.046875 C 47.164062 -54.128906 49.457031 -55.6875 50.59375 -57.71875 C 51.726562 -59.757812 52.125 -62.082031 51.78125 -64.6875 L 51.28125 -69.4375 L 5.9375 -67.40625 L 5.9375 -118.84375 L 100.171875 -118.84375 L 100.171875 -69.265625 L 89.984375 -69.609375 L 92.359375 -44.140625 C 93.265625 -38.253906 92.953125 -32.535156 91.421875 -26.984375 C 89.898438 -21.441406 87.046875 -16.4375 82.859375 -11.96875 C 78.671875 -7.5 73.125 -3.960938 66.21875 -1.359375 C 59.3125 1.242188 50.820312 2.546875 40.75 2.546875 Z M 40.75 2.546875 "/></g></g></g><g fill="#78dafa" fill-opacity="1"><g transform="translate(184.094353, 188.999988)"><g><path d="M 103.390625 -71.140625 L 43.125 -72.84375 L 43.125 -65.875 L 87.609375 -67.578125 L 87.609375 -52.296875 L 43.125 -53.984375 L 43.125 -46.6875 L 107.125 -49.75 L 107.125 0 L 4.75 0 L 4.75 -118.84375 L 103.390625 -118.84375 Z M 103.390625 -71.140625 "/></g></g></g><g fill="#78dafa" fill-opacity="1"><g transform="translate(79.848068, 319.499979)"><g><path d="M 103.390625 -71.140625 L 43.125 -72.84375 L 43.125 -65.875 L 87.609375 -67.578125 L 87.609375 -52.296875 L 43.125 -53.984375 L 43.125 -46.6875 L 107.125 -49.75 L 107.125 0 L 4.75 0 L 4.75 -118.84375 L 103.390625 -118.84375 Z M 103.390625 -71.140625 "/></g></g></g><g fill="#78dafa" fill-opacity="1"><g transform="translate(190.205921, 319.499979)"><g><path d="M 42.953125 -48.21875 L 101.875 -50.59375 L 101.875 0 L 4.75 0 L 4.75 -118.84375 L 47.203125 -118.84375 Z M 42.953125 -48.21875 "/></g></g></g></svg>