<svg xmlns="http://www.w3.org/2000/svg" xmlns:xlink="http://www.w3.org/1999/xlink" width="500" zoomAndPan="magnify" viewBox="0 0 375 374.999991" height="500" preserveAspectRatio="xMidYMid meet" version="1.0"><defs><g/></defs><path stroke-linecap="butt" transform="matrix(2.216154, 0, 0, 2.216154, 37.344165, 41.233836)" fill="none" stroke-linejoin="miter" d="M 34.000867 68.287896 C 30.47914 68.287896 26.987378 68.042891 23.522056 67.549356 C 20.072597 67.069922 17.220668 66.458291 14.96627 65.710937 L 15.473906 38.268615 C 16.233598 38.62114 17.305274 39.001867 18.68541 39.410796 C 20.065546 39.803862 21.579642 40.135235 23.225935 40.403155 C 24.87399 40.656973 26.388085 40.783882 27.768222 40.783882 C 31.17714 40.783882 33.76115 40.508912 35.522013 39.958973 C 37.282876 39.410796 38.451497 38.62114 39.027876 37.593529 C 39.606017 36.551817 39.803431 35.360282 39.620118 34.022449 L 39.3663 31.614702 L 16.254749 32.649363 L 16.254749 6.433828 L 64.295118 6.433828 L 64.295118 31.699308 L 59.097135 31.530096 L 60.302771 44.50126 C 60.766341 47.501249 60.60418 50.416632 59.816286 53.24741 C 59.040731 56.064086 57.583039 58.612843 55.443211 60.895443 C 53.315722 63.176281 50.491995 64.979448 46.972031 66.30318 C 43.464405 67.626912 39.140684 68.287896 34.000867 68.287896 Z M 118.695042 30.749252 L 87.979523 29.88204 L 87.979523 33.431969 L 110.668044 32.564757 L 110.668044 40.3397 L 87.979523 39.474251 L 87.979523 43.21278 L 120.618067 41.649331 L 120.618067 66.999417 L 68.439052 66.999417 L 68.439052 6.433828 L 118.695042 6.433828 Z M 118.695042 30.749252 " stroke="#806900" stroke-width="6.490478" stroke-opacity="1" stroke-miterlimit="4"/><path stroke-linecap="butt" transform="matrix(2.216154, 0, 0, 2.216154, 37.344165, 41.233836)" fill="none" stroke-linejoin="miter" d="M 65.57831 96.749017 L 34.861028 95.881805 L 34.861028 99.431734 L 57.549549 98.566284 L 57.549549 106.339465 L 34.861028 105.474015 L 34.861028 109.212545 L 67.499572 107.649096 L 67.499572 132.999182 L 15.320557 132.999182 L 15.320557 72.433593 L 65.57831 72.433593 Z M 91.011239 108.431702 L 121.051673 107.204914 L 121.051673 132.999182 L 71.555375 132.999182 L 71.555375 72.433593 L 93.188082 72.433593 Z M 91.011239 108.431702 " stroke="#806900" stroke-width="6.490478" stroke-opacity="1" stroke-miterlimit="4"/><g fill="#ffd200" fill-opacity="1"><g transform="translate(66.673574, 189.716136)"><g><path d="M 46.03125 2.875 C 38.226562 2.875 30.488281 2.328125 22.8125 1.234375 C 15.144531 0.148438 8.816406 -1.21875 3.828125 -2.875 L 4.984375 -63.671875 C 6.648438 -62.898438 9.015625 -62.066406 12.078125 -61.171875 C 15.148438 -60.273438 18.503906 -59.539062 22.140625 -58.96875 C 25.785156 -58.394531 29.144531 -58.109375 32.21875 -58.109375 C 39.757812 -58.109375 45.476562 -58.710938 49.375 -59.921875 C 53.28125 -61.140625 55.867188 -62.898438 57.140625 -65.203125 C 58.421875 -67.503906 58.867188 -70.125 58.484375 -73.0625 L 57.90625 -78.4375 L 6.71875 -76.125 L 6.71875 -134.234375 L 113.140625 -134.234375 L 113.140625 -78.234375 L 101.640625 -78.625 L 104.328125 -49.859375 C 105.347656 -43.210938 104.992188 -36.753906 103.265625 -30.484375 C 101.535156 -24.222656 98.304688 -18.566406 93.578125 -13.515625 C 88.847656 -8.460938 82.582031 -4.46875 74.78125 -1.53125 C 66.988281 1.40625 57.40625 2.875 46.03125 2.875 Z M 46.03125 2.875 "/></g></g></g><g fill="#ffd200" fill-opacity="1"><g transform="translate(183.630092, 189.716136)"><g><path d="M 116.78125 -80.34375 L 48.703125 -82.265625 L 48.703125 -74.40625 L 98.953125 -76.328125 L 98.953125 -59.0625 L 48.703125 -60.984375 L 48.703125 -52.734375 L 121 -56.1875 L 121 0 L 5.375 0 L 5.375 -134.234375 L 116.78125 -134.234375 Z M 116.78125 -80.34375 "/></g></g></g><g fill="#ffd200" fill-opacity="1"><g transform="translate(65.911771, 335.982282)"><g><path d="M 116.78125 -80.34375 L 48.703125 -82.265625 L 48.703125 -74.40625 L 98.953125 -76.328125 L 98.953125 -59.0625 L 48.703125 -60.984375 L 48.703125 -52.734375 L 121 -56.1875 L 121 0 L 5.375 0 L 5.375 -134.234375 L 116.78125 -134.234375 Z M 116.78125 -80.34375 "/></g></g></g><g fill="#ffd200" fill-opacity="1"><g transform="translate(190.537584, 335.982282)"><g><path d="M 48.515625 -54.46875 L 115.0625 -57.140625 L 115.0625 0 L 5.375 0 L 5.375 -134.234375 L 53.3125 -134.234375 Z M 48.515625 -54.46875 "/></g></g></g></svg>