<svg xmlns="http://www.w3.org/2000/svg" xmlns:xlink="http://www.w3.org/1999/xlink" width="500" zoomAndPan="magnify" viewBox="0 0 375 374.999991" height="500" preserveAspectRatio="xMidYMid meet" version="1.0"><defs><g/></defs><path stroke-linecap="butt" transform="matrix(1.040729, 0, 0, 1.040729, 31.525809, -3.009876)" fill="none" stroke-linejoin="miter" d="M 61.579386 179.372142 C 52.368598 179.372142 43.229123 178.726561 34.164717 177.435399 C 25.137844 176.185524 17.676129 174.582832 11.783326 172.627322 L 13.108269 100.83647 C 15.097559 101.756048 17.897578 102.750693 21.508328 103.820405 C 25.119077 104.852584 29.082643 105.715861 33.391521 106.417743 C 37.704152 107.078337 41.663965 107.412388 45.274714 107.412388 C 54.192739 107.412388 60.952572 106.691739 65.557966 105.257949 C 70.163361 103.820405 73.222363 101.756048 74.731221 99.064876 C 76.243832 96.339924 76.758045 93.224621 76.281366 89.726473 L 75.617018 83.424552 L 15.153859 86.13449 L 15.153859 17.545269 L 140.835706 17.545269 L 140.835706 83.646001 L 127.237219 83.203103 L 130.390056 117.137389 C 131.602397 124.985701 131.182019 132.612564 129.117661 140.021732 C 127.090838 147.389612 123.277406 154.059364 117.677367 160.027234 C 112.111108 165.995104 104.724461 170.7131 95.513672 174.177467 C 86.340418 177.638081 75.027738 179.372142 61.579386 179.372142 Z M 283.178796 81.157512 L 202.818983 78.894225 L 202.818983 88.180081 L 262.174895 85.913041 L 262.174895 106.252594 L 202.818983 103.985554 L 202.818983 113.766856 L 288.208321 109.679428 L 288.208321 176.001609 L 151.694227 176.001609 L 151.694227 17.545269 L 283.178796 17.545269 Z M 283.178796 81.157512 " stroke="#0097b2" stroke-width="16.979099" stroke-opacity="1" stroke-miterlimit="4"/><path stroke-linecap="butt" transform="matrix(1.040729, 0, 0, 1.040729, 31.525809, -3.009876)" fill="none" stroke-linejoin="miter" d="M 144.183719 255.160341 L 63.823906 252.893301 L 63.823906 262.179157 L 123.179818 259.912117 L 123.179818 280.25167 L 63.823906 277.98463 L 63.823906 287.765931 L 149.213245 283.678503 L 149.213245 350.000684 L 12.699151 350.000684 L 12.699151 191.544345 L 144.183719 191.544345 Z M 210.746116 285.724094 L 289.338088 282.51871 L 289.338088 350.000684 L 159.84281 350.000684 L 159.84281 191.544345 L 216.43999 191.544345 Z M 210.746116 285.724094 " stroke="#0097b2" stroke-width="16.979099" stroke-opacity="1" stroke-miterlimit="4"/><g fill="#78dafa" fill-opacity="1"><g transform="translate(39.071097, 180.158482)"><g><path d="M 56.546875 3.53125 C 46.960938 3.53125 37.457031 2.863281 28.03125 1.53125 C 18.613281 0.195312 10.84375 -1.488281 4.71875 -3.53125 L 6.125 -78.21875 C 8.164062 -77.269531 11.070312 -76.242188 14.84375 -75.140625 C 18.613281 -74.046875 22.734375 -73.144531 27.203125 -72.4375 C 31.679688 -71.738281 35.804688 -71.390625 39.578125 -71.390625 C 48.847656 -71.390625 55.875 -72.132812 60.65625 -73.625 C 65.445312 -75.113281 68.628906 -77.269531 70.203125 -80.09375 C 71.773438 -82.925781 72.328125 -86.148438 71.859375 -89.765625 L 71.15625 -96.359375 L 8.25 -93.53125 L 8.25 -164.921875 L 139 -164.921875 L 139 -96.125 L 124.859375 -96.59375 L 128.15625 -61.25 C 129.414062 -53.082031 128.984375 -45.148438 126.859375 -37.453125 C 124.742188 -29.765625 120.78125 -22.816406 114.96875 -16.609375 C 109.15625 -10.398438 101.457031 -5.488281 91.875 -1.875 C 82.300781 1.726562 70.523438 3.53125 56.546875 3.53125 Z M 56.546875 3.53125 "/></g></g></g><g fill="#78dafa" fill-opacity="1"><g transform="translate(182.784164, 180.158482)"><g><path d="M 143.484375 -98.71875 L 59.84375 -101.0625 L 59.84375 -91.40625 L 121.5625 -93.765625 L 121.5625 -72.5625 L 59.84375 -74.921875 L 59.84375 -64.78125 L 148.65625 -69.03125 L 148.65625 0 L 6.59375 0 L 6.59375 -164.921875 L 143.484375 -164.921875 Z M 143.484375 -98.71875 "/></g></g></g><g fill="#78dafa" fill-opacity="1"><g transform="translate(38.127936, 361.245382)"><g><path d="M 143.484375 -98.71875 L 59.84375 -101.0625 L 59.84375 -91.40625 L 121.5625 -93.765625 L 121.5625 -72.5625 L 59.84375 -74.921875 L 59.84375 -64.78125 L 148.65625 -69.03125 L 148.65625 0 L 6.59375 0 L 6.59375 -164.921875 L 143.484375 -164.921875 Z M 143.484375 -98.71875 "/></g></g></g><g fill="#78dafa" fill-opacity="1"><g transform="translate(191.264816, 361.245382)"><g><path d="M 59.609375 -66.90625 L 141.359375 -70.203125 L 141.359375 0 L 6.59375 0 L 6.59375 -164.921875 L 65.5 -164.921875 Z M 59.609375 -66.90625 "/></g></g></g></svg>